<svg width="800" height="520" viewBox="0 0 800 520" fill="none" xmlns="http://www.w3.org/2000/svg">
  <defs>
    <linearGradient id="sky" x1="400" y1="0" x2="400" y2="520" gradientUnits="userSpaceOnUse">
      <stop stop-color="#DDF9F2"/>
      <stop offset="1" stop-color="#F8FCFA"/>
    </linearGradient>
    <linearGradient id="carBody" x1="170" y1="250" x2="620" y2="330" gradientUnits="userSpaceOnUse">
      <stop stop-color="#FFD65A"/>
      <stop offset="1" stop-color="#F4B31A"/>
    </linearGradient>
    <linearGradient id="roof" x1="245" y1="110" x2="560" y2="210" gradientUnits="userSpaceOnUse">
      <stop stop-color="#1FAE9A"/>
      <stop offset="1" stop-color="#0F766E"/>
    </linearGradient>
  </defs>

  <rect width="800" height="520" rx="32" fill="url(#sky)"/>

  <circle cx="650" cy="95" r="56" fill="#F7D783" fill-opacity="0.9"/>

  <g opacity="0.18">
    <rect x="50" y="120" width="110" height="150" rx="10" fill="#78B5A5"/>
    <rect x="170" y="90" width="130" height="180" rx="10" fill="#97D3C5"/>
    <rect x="315" y="142" width="85" height="128" rx="10" fill="#7ABAA8"/>
    <rect x="415" y="102" width="120" height="168" rx="10" fill="#8FCDBA"/>
    <rect x="545" y="128" width="150" height="142" rx="10" fill="#6CB6A1"/>
  </g>

  <path d="M0 390C95 365 150 362 220 382C300 404 358 425 437 418C518 410 573 397 645 382C700 370 756 362 800 375V520H0V390Z" fill="#E5F7F1"/>
  <path d="M0 438C132 415 194 423 264 448C335 472 399 481 488 468C586 454 660 430 800 438V520H0V438Z" fill="#BFE8DC"/>

  <g filter="url(#shadow)">
    <path d="M180 295H620C648 295 672 319 672 347V357C672 380 653 399 630 399H170C146 399 126 380 126 357V347C126 319 150 295 180 295Z" fill="url(#carBody)"/>
    <path d="M248 224C248 204 264 188 284 188H431C451 188 467 204 467 224V289H248V224Z" fill="url(#roof)"/>
    <path d="M431 188H498C525 188 548 210 548 238V289H467L431 188Z" fill="#0F766E" fill-opacity="0.95"/>
    <path d="M260 217H356C368 217 377 227 377 239V290H260V217Z" fill="#EAFBF7" fill-opacity="0.9"/>
    <path d="M262 241C290 218 329 206 374 206H430V232H262V241Z" fill="#C7EDE6" fill-opacity="0.85"/>
    <circle cx="236" cy="401" r="44" fill="#173B43"/>
    <circle cx="236" cy="401" r="21" fill="#D8F5EF"/>
    <circle cx="566" cy="401" r="44" fill="#173B43"/>
    <circle cx="566" cy="401" r="21" fill="#D8F5EF"/>
    <path d="M170 322H637" stroke="#F3D349" stroke-width="8" stroke-linecap="round"/>
    <path d="M508 214L560 214" stroke="#B9F2EB" stroke-width="12" stroke-linecap="round"/>
    <path d="M549 228L575 282" stroke="#B9F2EB" stroke-width="12" stroke-linecap="round"/>
    <path d="M199 322H128C108 322 92 338 92 358V366H166C180 366 191 355 191 341V322H199Z" fill="#F4B31A"/>
  </g>

  <defs>
    <filter id="shadow" x="-20%" y="-20%" width="140%" height="180%">
      <feDropShadow dx="0" dy="12" stdDeviation="12" flood-color="#0F766E" flood-opacity="0.15"/>
    </filter>
  </defs>
</svg>
